<svg width="104" height="13" viewBox="0 0 104 13" fill="none" xmlns="http://www.w3.org/2000/svg">
<g id="logo">
<path id="Vector" d="M99.0537 12.8995C98.1522 12.8995 97.316 12.7571 96.545 12.4724C95.774 12.1759 95.1335 11.7192 94.6234 11.1024C94.1252 10.4738 93.8168 9.67311 93.6982 8.70046H96.6162C96.7111 9.06817 96.8831 9.36471 97.1322 9.59007C97.3931 9.81544 97.7074 9.98151 98.0751 10.0883C98.4429 10.1832 98.8343 10.2306 99.2494 10.2306C99.5341 10.2306 99.8188 10.2009 100.103 10.1416C100.388 10.0705 100.625 9.95185 100.815 9.78579C101.005 9.61973 101.1 9.38843 101.1 9.09189C101.1 8.86652 101.046 8.68859 100.94 8.55812C100.833 8.41578 100.679 8.30309 100.477 8.22006C100.287 8.12517 100.05 8.04214 99.7654 7.97097C99.5875 7.92352 99.4036 7.88201 99.2139 7.84642C99.0241 7.81084 98.8402 7.76932 98.6623 7.72188C98.4844 7.67443 98.3064 7.62105 98.1285 7.56175C97.5948 7.43127 97.0847 7.283 96.5984 7.11694C96.1121 6.93901 95.6791 6.71364 95.2995 6.44083C94.9318 6.16801 94.6412 5.81217 94.4277 5.37329C94.2142 4.93441 94.1075 4.38878 94.1075 3.73639C94.1075 3.10773 94.2142 2.57396 94.4277 2.13508C94.6531 1.68434 94.9496 1.32256 95.3173 1.04975C95.6969 0.76507 96.1061 0.551561 96.545 0.409223C96.9957 0.255023 97.4406 0.14827 97.8794 0.0889621C98.3302 0.0296543 98.7453 0 99.1249 0C99.9671 0 100.714 0.154199 101.367 0.4626C102.031 0.771001 102.565 1.22767 102.968 1.83261C103.383 2.42569 103.632 3.16111 103.715 4.03886H100.922C100.874 3.73046 100.75 3.47544 100.548 3.27379C100.358 3.07214 100.109 2.91794 99.801 2.81119C99.5045 2.70444 99.1605 2.65106 98.769 2.65106C98.5318 2.65106 98.3005 2.67478 98.0751 2.72223C97.8616 2.75781 97.6718 2.81712 97.5058 2.90015C97.3516 2.98318 97.2211 3.09587 97.1144 3.23821C97.0195 3.36868 96.972 3.53474 96.972 3.73639C96.972 3.9499 97.0432 4.13375 97.1855 4.28795C97.3279 4.43029 97.5295 4.55484 97.7905 4.66159C98.0633 4.76835 98.3954 4.8751 98.7868 4.98186C99.0597 5.07675 99.3384 5.15385 99.6231 5.21316C99.9196 5.2606 100.204 5.32584 100.477 5.40887C100.975 5.52749 101.432 5.66983 101.847 5.83589C102.274 5.99009 102.648 6.19174 102.968 6.44083C103.288 6.67806 103.537 6.99832 103.715 7.40162C103.905 7.79305 104 8.29123 104 8.89617C104 9.63159 103.864 10.2543 103.591 10.7644C103.318 11.2626 102.944 11.6718 102.47 11.992C101.995 12.3123 101.462 12.5436 100.869 12.6859C100.287 12.8283 99.6824 12.8995 99.0537 12.8995Z" fill="#202326"/>
<path id="Vector_2" d="M83.6456 12.7571V0.160131H92.9332V2.82898H86.5279V5.21316H91.919V7.77525H86.5279V10.1061H92.9332V12.7571H83.6456Z" fill="#202326"/>
<path id="Vector_3" d="M77.2206 12.8995C76.3191 12.8995 75.4829 12.7571 74.7119 12.4724C73.9409 12.1759 73.3003 11.7192 72.7903 11.1024C72.2921 10.4738 71.9837 9.67311 71.8651 8.70046H74.783C74.8779 9.06817 75.0499 9.36471 75.299 9.59007C75.56 9.81544 75.8743 9.98151 76.242 10.0883C76.6097 10.1832 77.0011 10.2306 77.4163 10.2306C77.701 10.2306 77.9857 10.2009 78.2703 10.1416C78.555 10.0705 78.7922 9.95185 78.982 9.78579C79.1718 9.61973 79.2667 9.38843 79.2667 9.09189C79.2667 8.86652 79.2133 8.68859 79.1066 8.55812C78.9998 8.41578 78.8456 8.30309 78.644 8.22006C78.4542 8.12517 78.217 8.04214 77.9323 7.97097C77.7544 7.92352 77.5705 7.88201 77.3807 7.84642C77.1909 7.81084 77.0071 7.76932 76.8292 7.72188C76.6512 7.67443 76.4733 7.62105 76.2954 7.56175C75.7616 7.43127 75.2516 7.283 74.7652 7.11694C74.2789 6.93901 73.846 6.71364 73.4664 6.44083C73.0987 6.16801 72.8081 5.81217 72.5946 5.37329C72.3811 4.93441 72.2743 4.38878 72.2743 3.73639C72.2743 3.10773 72.3811 2.57396 72.5946 2.13508C72.8199 1.68434 73.1165 1.32256 73.4842 1.04975C73.8638 0.76507 74.273 0.551561 74.7119 0.409223C75.1626 0.255023 75.6074 0.14827 76.0463 0.0889621C76.497 0.0296543 76.9122 0 77.2918 0C78.1339 0 78.8812 0.154199 79.5336 0.4626C80.1978 0.771001 80.7316 1.22767 81.1349 1.83261C81.5501 2.42569 81.7992 3.16111 81.8822 4.03886H79.0888C79.0413 3.73046 78.9168 3.47544 78.7151 3.27379C78.5254 3.07214 78.2763 2.91794 77.9679 2.81119C77.6713 2.70444 77.3273 2.65106 76.9359 2.65106C76.6987 2.65106 76.4674 2.67478 76.242 2.72223C76.0285 2.75781 75.8387 2.81712 75.6727 2.90015C75.5184 2.98318 75.388 3.09587 75.2812 3.23821C75.1863 3.36868 75.1389 3.53474 75.1389 3.73639C75.1389 3.9499 75.21 4.13375 75.3524 4.28795C75.4947 4.43029 75.6964 4.55484 75.9573 4.66159C76.2301 4.76835 76.5623 4.8751 76.9537 4.98186C77.2265 5.07675 77.5053 5.15385 77.7899 5.21316C78.0865 5.2606 78.3712 5.32584 78.644 5.40887C79.1422 5.52749 79.5988 5.66983 80.014 5.83589C80.441 5.99009 80.8146 6.19174 81.1349 6.44083C81.4552 6.67806 81.7043 6.99832 81.8822 7.40162C82.072 7.79305 82.1669 8.29123 82.1669 8.89617C82.1669 9.63159 82.0305 10.2543 81.7576 10.7644C81.4848 11.2626 81.1112 11.6718 80.6367 11.992C80.1623 12.3123 79.6285 12.5436 79.0354 12.6859C78.4542 12.8283 77.8493 12.8995 77.2206 12.8995Z" fill="#202326"/>
<path id="Vector_4" d="M60.4745 12.7571V0.160131H65.6699C66.263 0.160131 66.8501 0.219438 67.4313 0.338054C68.0244 0.444808 68.5641 0.646455 69.0504 0.942994C69.5367 1.23953 69.9222 1.66062 70.2069 2.20625C70.5035 2.74002 70.6517 3.42799 70.6517 4.27016C70.6517 4.83952 70.5568 5.36736 70.3671 5.85368C70.1773 6.34001 69.8926 6.76109 69.513 7.11694C69.1453 7.47278 68.6768 7.75153 68.1074 7.95318L70.972 12.7571H67.6982L65.2607 8.41578H63.3569V12.7571H60.4745ZM63.3569 5.87147H65.5809C65.9249 5.87147 66.2274 5.84182 66.4883 5.78251C66.7611 5.71134 66.9924 5.61645 67.1822 5.49784C67.372 5.36736 67.5144 5.20129 67.6092 4.99965C67.716 4.798 67.7753 4.55484 67.7872 4.27016C67.7872 3.87873 67.6923 3.58219 67.5025 3.38054C67.3246 3.1789 67.0814 3.03656 66.773 2.95353C66.4646 2.8705 66.1088 2.82898 65.7055 2.82898H63.3569V5.87147Z" fill="#202326"/>
<path id="Vector_5" d="M53.1759 12.8995C51.9304 12.8995 50.9044 12.6741 50.0978 12.2233C49.2912 11.7726 48.6922 11.1084 48.3008 10.2306C47.9212 9.35284 47.7314 8.2853 47.7314 7.02798V0.160131H50.6138V7.18811C50.6138 7.69815 50.6909 8.18448 50.8451 8.64708C50.9993 9.10968 51.2662 9.48925 51.6458 9.78579C52.0253 10.0705 52.5472 10.2128 53.2115 10.2128C53.8876 10.2128 54.3976 10.0645 54.7416 9.768C55.0975 9.47146 55.3406 9.09189 55.4711 8.62929C55.6134 8.16669 55.6846 7.68629 55.6846 7.18811V0.160131H58.567V7.02798C58.567 8.27344 58.3772 9.33505 57.9976 10.2128C57.6181 11.0906 57.0309 11.7607 56.2362 12.2233C55.4415 12.6741 54.4214 12.8995 53.1759 12.8995Z" fill="#202326"/>
<path id="Vector_6" d="M40.128 12.8995C38.8351 12.8995 37.7142 12.6326 36.7652 12.0988C35.8282 11.5532 35.1046 10.8 34.5946 9.83917C34.0845 8.86652 33.8295 7.7456 33.8295 6.47641C33.8295 5.17164 34.0905 4.03886 34.6124 3.07807C35.1461 2.10543 35.8875 1.35222 36.8364 0.818448C37.7853 0.272816 38.9063 0 40.1992 0C41.4684 0 42.5715 0.266885 43.5086 0.800655C44.4575 1.33443 45.1929 2.0817 45.7148 3.04249C46.2486 3.99142 46.5155 5.11233 46.5155 6.40524C46.5155 7.67443 46.2545 8.80128 45.7326 9.78579C45.2107 10.7584 44.4693 11.5235 43.5086 12.081C42.5596 12.6266 41.4328 12.8995 40.128 12.8995ZM40.1814 10.1772C40.988 10.1772 41.6404 9.99337 42.1385 9.62566C42.6367 9.25795 42.9985 8.78942 43.2239 8.22006C43.4492 7.65071 43.5619 7.06949 43.5619 6.47641C43.5619 6.03754 43.4967 5.59866 43.3662 5.15978C43.2476 4.7209 43.0519 4.31761 42.7791 3.9499C42.5181 3.58219 42.1741 3.28565 41.7471 3.06028C41.3201 2.83491 40.7923 2.72223 40.1636 2.72223C39.3689 2.72223 38.7224 2.90608 38.2242 3.27379C37.726 3.62964 37.3583 4.09224 37.1211 4.66159C36.8957 5.23095 36.783 5.82996 36.783 6.45862C36.783 7.08728 36.9017 7.68629 37.1389 8.25565C37.3761 8.825 37.7438 9.2876 38.242 9.64345C38.7521 9.9993 39.3985 10.1772 40.1814 10.1772Z" fill="#202326"/>
<path id="Vector_7" d="M27.5405 12.8995C26.2357 12.8995 25.1207 12.6385 24.1955 12.1166C23.2703 11.5947 22.5645 10.8533 22.0782 9.89254C21.6037 8.93176 21.3665 7.80491 21.3665 6.512C21.3665 5.19536 21.6156 4.05072 22.1138 3.07807C22.612 2.10543 23.3177 1.35222 24.2311 0.818448C25.1563 0.272816 26.2475 0 27.5049 0C28.4775 0 29.3553 0.171993 30.1381 0.515978C30.921 0.859963 31.5556 1.37001 32.0419 2.04612C32.5401 2.71037 32.8426 3.55254 32.9493 4.57263H30.1915C30.0492 3.99142 29.7586 3.54068 29.3197 3.22041C28.8927 2.88829 28.3115 2.72223 27.576 2.72223C26.7813 2.72223 26.1467 2.90608 25.6723 3.27379C25.1978 3.62964 24.8538 4.08631 24.6403 4.6438C24.4387 5.2013 24.3378 5.78251 24.3378 6.38745C24.3378 7.01612 24.4446 7.62105 24.6581 8.20227C24.8835 8.78349 25.2334 9.25795 25.7078 9.62566C26.1942 9.99337 26.8347 10.1772 27.6294 10.1772C28.1039 10.1772 28.519 10.1061 28.8749 9.96371C29.2426 9.82137 29.5451 9.6138 29.7823 9.34098C30.0195 9.06816 30.1856 8.74197 30.2805 8.3624H33.1095C33.0146 9.34691 32.7002 10.1772 32.1665 10.8533C31.6446 11.5294 30.9744 12.0395 30.1559 12.3835C29.3493 12.7275 28.4775 12.8995 27.5405 12.8995Z" fill="#202326"/>
<path id="Vector_8" d="M15.6355 12.8995C14.734 12.8995 13.8977 12.7571 13.1267 12.4724C12.3557 12.1759 11.7152 11.7192 11.2052 11.1024C10.707 10.4738 10.3986 9.67311 10.28 8.70046H13.1979C13.2928 9.06817 13.4648 9.36471 13.7139 9.59007C13.9748 9.81544 14.2892 9.98151 14.6569 10.0883C15.0246 10.1832 15.416 10.2306 15.8312 10.2306C16.1158 10.2306 16.4005 10.2009 16.6852 10.1416C16.9699 10.0705 17.2071 9.95185 17.3969 9.78579C17.5867 9.61973 17.6816 9.38843 17.6816 9.09189C17.6816 8.86652 17.6282 8.68859 17.5214 8.55812C17.4147 8.41578 17.2605 8.30309 17.0588 8.22006C16.8691 8.12517 16.6318 8.04214 16.3471 7.97097C16.1692 7.92352 15.9854 7.88201 15.7956 7.84642C15.6058 7.81084 15.4219 7.76932 15.244 7.72188C15.0661 7.67443 14.8882 7.62105 14.7103 7.56175C14.1765 7.43127 13.6664 7.283 13.1801 7.11694C12.6938 6.93901 12.2608 6.71364 11.8813 6.44083C11.5136 6.16801 11.223 5.81217 11.0094 5.37329C10.7959 4.93441 10.6892 4.38878 10.6892 3.73639C10.6892 3.10773 10.7959 2.57396 11.0094 2.13508C11.2348 1.68434 11.5314 1.32256 11.8991 1.04975C12.2786 0.76507 12.6879 0.551561 13.1267 0.409223C13.5775 0.255023 14.0223 0.14827 14.4612 0.0889621C14.9119 0.0296543 15.3271 0 15.7066 0C16.5488 0 17.2961 0.154199 17.9485 0.4626C18.6127 0.771001 19.1465 1.22767 19.5498 1.83261C19.9649 2.42569 20.214 3.16111 20.297 4.03886H17.5037C17.4562 3.73046 17.3317 3.47544 17.13 3.27379C16.9402 3.07214 16.6911 2.91794 16.3827 2.81119C16.0862 2.70444 15.7422 2.65106 15.3508 2.65106C15.1135 2.65106 14.8822 2.67478 14.6569 2.72223C14.4434 2.75781 14.2536 2.81712 14.0875 2.90015C13.9333 2.98318 13.8028 3.09587 13.6961 3.23821C13.6012 3.36868 13.5537 3.53474 13.5537 3.73639C13.5537 3.9499 13.6249 4.13375 13.7673 4.28795C13.9096 4.43029 14.1112 4.55484 14.3722 4.66159C14.645 4.76835 14.9771 4.8751 15.3686 4.98186C15.6414 5.07675 15.9201 5.15385 16.2048 5.21316C16.5013 5.2606 16.786 5.32584 17.0588 5.40887C17.557 5.52749 18.0137 5.66983 18.4289 5.83589C18.8559 5.99009 19.2295 6.19174 19.5498 6.44083C19.87 6.67806 20.1191 6.99832 20.297 7.40162C20.4868 7.79305 20.5817 8.29123 20.5817 8.89617C20.5817 9.63159 20.4453 10.2543 20.1725 10.7644C19.8997 11.2626 19.526 11.6718 19.0516 11.992C18.5771 12.3123 18.0434 12.5436 17.4503 12.6859C16.8691 12.8283 16.2641 12.8995 15.6355 12.8995Z" fill="#2D1AA7"/>
<path id="Vector_9" d="M4.62601 12.8995C3.98549 12.8995 3.38648 12.8224 2.82898 12.6681C2.27149 12.5139 1.77923 12.2589 1.35222 11.9031C0.937064 11.5472 0.610871 11.0728 0.373639 10.4797C0.136408 9.87475 0.0118616 9.12747 0 8.23786H2.88236C2.88236 8.5344 2.92388 8.83687 3.00691 9.14527C3.08994 9.4418 3.24414 9.69683 3.46951 9.91034C3.70674 10.112 4.06259 10.2128 4.53705 10.2128C4.94034 10.2128 5.24874 10.1357 5.46225 9.98151C5.67576 9.81544 5.8181 9.60194 5.88927 9.34098C5.9723 9.08003 6.01381 8.80128 6.01381 8.50474V0.160131H8.89617V8.25565C8.89617 9.01479 8.80721 9.68497 8.62929 10.2662C8.46323 10.8355 8.20227 11.3159 7.84642 11.7074C7.49058 12.0988 7.04577 12.3953 6.512 12.597C5.97823 12.7986 5.34957 12.8995 4.62601 12.8995Z" fill="#2D1AA7"/>
</g>
</svg>
